<?xml version="1.0" ?><!DOCTYPE svg  PUBLIC '-//W3C//DTD SVG 1.1//EN'  'http://www.w3.org/Graphics/SVG/1.1/DTD/svg11.dtd'><svg enable-background="new 0 0 512 512" height="512px" id="Layer_1" version="1.1" viewBox="0 0 512 512" width="512px" xml:space="preserve" xmlns="http://www.w3.org/2000/svg" xmlns:xlink="http://www.w3.org/1999/xlink"><g><path d="M472.945,473.439c-71.438,71.438-168.875,19.5-168.875,19.5s-124.5,30.313-224.125-69.313   C-19.617,324.002,16.07,212.502,16.07,212.502s-48.688-96.375,29.25-174.313s163.5-13,163.5-13s115.813-37.875,216.5,62.813   c100.687,100.688,65,228.438,65,228.438S544.445,401.939,472.945,473.439z M206.633,151.877c0,0,81.188-40.063,111.5,45.5   l48.75-5.438c0,0,15.125-87.688-141.813-87.688c-46.563,0-94.25,43.313-88.813,83.375c5.438,40,24.938,82.25,96.375,89.813   c71.438,7.625,113.688,37.938,85.5,70.375c-28.125,32.5-108.25,59.563-137.5-31.375c-3.25-1.063-51.938,2.188-51.938,2.188   s-2.188,107.125,126.688,101.75c128.813-5.438,124.5-97.438,124.5-97.438s30.313-59.563-110.438-93.125   C128.693,196.252,206.633,151.877,206.633,151.877z"/></g></svg>