<?xml version="1.0" encoding="UTF-8"?><!DOCTYPE svg PUBLIC "-//W3C//DTD SVG 1.1//EN" "http://www.w3.org/Graphics/SVG/1.1/DTD/svg11.dtd"><svg xmlns="http://www.w3.org/2000/svg"><symbol id="icon-calendar" viewBox="0 0 48 48">
    <path clip-rule="evenodd" d="M43 43H5a4 4 0 0 1-4-4V9a4 4 0 0 1 4-4h38a4 4 0 0 1 4 4v30a4 4 0 0 1-4 4zm2-34a2 2 0 0 0-2-2H5a2 2 0 0 0-2 2v6h42V9zm0 8H3v22a2 2 0 0 0 2 2h38a2 2 0 0 0 2-2V17zm-4 14h-2a1 1 0 0 1-1-1v-2a1 1 0 0 1 1-1h2a1 1 0 0 1 1 1v2a1 1 0 0 1-1 1zm0-7h-2a1 1 0 0 1-1-1v-2a1 1 0 0 1 1-1h2a1 1 0 0 1 1 1v2a1 1 0 0 1-1 1zm-8 7h-2a1 1 0 0 1-1-1v-2a1 1 0 0 1 1-1h2a1 1 0 0 1 1 1v2a1 1 0 0 1-1 1zm0-7h-2a1 1 0 0 1-1-1v-2a1 1 0 0 1 1-1h2a1 1 0 0 1 1 1v2a1 1 0 0 1-1 1zm-8 7h-2a1 1 0 0 1-1-1v-2a1 1 0 0 1 1-1h2a1 1 0 0 1 1 1v2a1 1 0 0 1-1 1zm0-7h-2a1 1 0 0 1-1-1v-2a1 1 0 0 1 1-1h2a1 1 0 0 1 1 1v2a1 1 0 0 1-1 1zm-8 14h-2a1 1 0 0 1-1-1v-2a1 1 0 0 1 1-1h2a1 1 0 0 1 1 1v2a1 1 0 0 1-1 1zm0-7h-2a1 1 0 0 1-1-1v-2a1 1 0 0 1 1-1h2a1 1 0 0 1 1 1v2a1 1 0 0 1-1 1zm0-7h-2a1 1 0 0 1-1-1v-2a1 1 0 0 1 1-1h2a1 1 0 0 1 1 1v2a1 1 0 0 1-1 1zM9 38H7a1 1 0 0 1-1-1v-2a1 1 0 0 1 1-1h2a1 1 0 0 1 1 1v2a1 1 0 0 1-1 1zm0-7H7a1 1 0 0 1-1-1v-2a1 1 0 0 1 1-1h2a1 1 0 0 1 1 1v2a1 1 0 0 1-1 1zm14 3h2a1 1 0 0 1 1 1v2a1 1 0 0 1-1 1h-2a1 1 0 0 1-1-1v-2a1 1 0 0 1 1-1z" fill-rule="evenodd"/>
</symbol><symbol id="icon-facebook" viewBox="0 0 512 512">
    <path d="M191.844 511.5V288.375h-68.313V188h69.875v-83.063S196.594.312 286.219-.501h99.75V98h-61.875s-26.125 0-26.125 29.438v62.313h89.5l-10.75 100.313h-77.188V511.5H191.844z"/>
</symbol><symbol id="icon-linkedin" viewBox="0 0 512 512">
    <path d="M409.391 511.359V317.203s-5.75-51.938-56-51.938c-50.219 0-59.406 49.375-59.406 49.375v196.719h-103.5l1.688-320.719h100.125l-.813 40.313s20.876-52.688 99.531-52.688c78.625 0 114.25 45.188 120.875 129.688v203.406h-102.5zM63.547 145.078c-35.563 0-64.438-25.438-64.438-56.875s28.875-56.938 64.438-56.938 64.438 25.5 64.438 56.938-28.876 56.875-64.438 56.875zm63.875 366.656H.172V191.453l127.25-.813v321.094z"/>
</symbol><symbol id="icon-pencil" viewBox="0 0 48 48">
    <path clip-rule="evenodd" d="M44.929 14.391a.955.955 0 0 1-.183.276L16.84 42.572a.95.95 0 0 1-.475.434l-13.852 3.88c-.029.014-.062.016-.094.026l-.047.014c-.008.003-.017.001-.024.004a1.06 1.06 0 0 1-.286.045.926.926 0 0 1-.282-.041c-.021-.006-.04-.002-.061-.009-.008-.003-.013-.01-.021-.013a.94.94 0 0 1-.24-.141c-.039-.028-.08-.053-.113-.086s-.058-.074-.086-.113a.952.952 0 0 1-.141-.24c-.004-.008-.01-.013-.013-.021-.007-.02-.003-.04-.009-.061a.985.985 0 0 1-.041-.281c0-.1.02-.193.045-.287.004-.008.001-.016.004-.023l.014-.049c.011-.03.013-.063.026-.093l3.88-13.852c.082-.216.246-.364.434-.475L32.937 3.71c.04-.045.087-.083.128-.127l.299-.299c.015-.015.034-.02.05-.034C34.858 1.87 36.796 1 38.953 1A8.047 8.047 0 0 1 47 9.047c0 2.061-.795 3.922-2.071 5.344zM41.15 15.5l-3.619-3.619-23.64 23.641c.004.008.014.011.018.019l2.373 4.827L41.15 15.5zM3.559 44.473l2.785-.779-2.006-2.005-.779 2.784zm1.384-4.943l3.558 3.559 6.12-1.715s-2.586-5.372-2.59-5.374l-5.374-2.59-1.714 6.12zm7.547-5.406c.008.004.011.013.019.018L36.15 10.5l-3.619-3.619L7.663 31.749l4.827 2.375zM38.922 3c-1.782 0-3.372.776-4.489 1.994l-.007-.007-.514.513 8.619 8.619.527-.528-.006-.006c1.209-1.116 1.979-2.701 1.979-4.476A6.109 6.109 0 0 0 38.922 3z" fill-rule="evenodd"/>
</symbol><symbol id="icon-pinterest" viewBox="0 0 512 512">
    <path d="M512 255.5C512 397.125 397.125 512 255.5 512 113.813 512-1 397.125-1 255.5-1 113.813 113.813-1 255.5-1 397.125-1 512 113.813 512 255.5M273.438 62.938c-102.438 0-162.063 81.438-162.063 142.688 0 37.063 22 70.063 52.125 82.375 4.938 2 9.375.063 10.813-5.438 1-3.75 3.313-13.313 4.375-17.313 1.438-5.375.938-7.25-3.063-12-8.688-10.25-14.25-23.5-14.25-42.25 0-54.5 40.75-103.313 106.125-103.313 57.938 0 89.75 35.375 89.75 82.625C357.25 252.5 329.75 305 288.875 305c-22.563 0-39.438-18.688-34-41.563 6.438-27.313 19-56.813 19-76.5 0-17.625-9.438-32.375-29.063-32.375-23.063 0-41.563 23.875-41.563 55.813 0 20.375 6.875 34.125 6.875 34.125s-31.625 100-35.75 117.5c-8.25 34.875 14.75 93.625 15.375 97.938.313 2.563 3.625 3.125 5.125 1.25 2.125-2.813 37.563-52.688 46.875-86.563 2.688-9.625-.813-59.313-.813-59.313 7.5 14.313 29.375 34.875 52.688 34.875 69.313 0 124.313-71.188 124.313-155.75.001-63.937-62.187-131.499-144.499-131.499"/>
</symbol><symbol id="icon-settings" viewBox="0 0 48 48">
    <path clip-rule="evenodd" d="M35 22H13C7.477 22 3 17.523 3 12S7.477 2 13 2h22c5.522 0 10 4.477 10 10s-4.478 10-10 10zm0-18H13a8 8 0 0 0 0 16h22a8 8 0 0 0 0-16zM13 18a6 6 0 1 1 0-12 6 6 0 0 1 0 12zm0-10a4 4 0 1 0 0 8 4 4 0 0 0 0-8zm0 18h22c5.522 0 10 4.478 10 10s-4.478 10-10 10H13C7.477 46 3 41.522 3 36s4.477-10 10-10zm0 18h22a8 8 0 0 0 0-16H13a8 8 0 0 0 0 16zm22-14a6 6 0 0 1 0 12 6 6 0 0 1 0-12zm0 10a4 4 0 1 0 0-8 4 4 0 0 0 0 8z" fill-rule="evenodd"/>
</symbol><symbol id="icon-skype" viewBox="0 0 512 512">
    <path d="M472.945 473.439c-71.438 71.438-168.875 19.5-168.875 19.5s-124.5 30.313-224.125-69.313C-19.617 324.002 16.07 212.502 16.07 212.502s-48.688-96.375 29.25-174.313 163.5-13 163.5-13 115.813-37.875 216.5 62.813 65 228.438 65 228.438 54.125 85.499-17.375 156.999zM206.633 151.877s81.188-40.063 111.5 45.5l48.75-5.438s15.125-87.688-141.813-87.688c-46.563 0-94.25 43.313-88.813 83.375 5.438 40 24.938 82.25 96.375 89.813 71.438 7.625 113.688 37.938 85.5 70.375-28.125 32.5-108.25 59.563-137.5-31.375-3.25-1.063-51.938 2.188-51.938 2.188s-2.188 107.125 126.688 101.75c128.813-5.438 124.5-97.438 124.5-97.438s30.313-59.563-110.438-93.125-62.811-77.937-62.811-77.937z"/>
</symbol><symbol id="icon-tablet" viewBox="0 0 48 48">
    <path clip-rule="evenodd" d="M38 47H10a4 4 0 0 1-4-4V5a4 4 0 0 1 4-4h28a4 4 0 0 1 4 4v38a4 4 0 0 1-4 4zm2-42a2 2 0 0 0-2-2H10a2 2 0 0 0-2 2v38a2 2 0 0 0 2 2h28a2 2 0 0 0 2-2V5zM10 39V7h28v32H10zm2-2h24V9H12v28zm20-21h-2a1 1 0 0 1-1-1v-2a1 1 0 0 1 1-1h2a1 1 0 0 1 1 1v2a1 1 0 0 1-1 1zm-7 7h-2a1 1 0 0 1-1-1v-2a1 1 0 0 1 1-1h2a1 1 0 0 1 1 1v2a1 1 0 0 1-1 1zm0-7h-2a1 1 0 0 1-1-1v-2a1 1 0 0 1 1-1h2a1 1 0 0 1 1 1v2a1 1 0 0 1-1 1zm-7 7h-2a1 1 0 0 1-1-1v-2a1 1 0 0 1 1-1h2a1 1 0 0 1 1 1v2a1 1 0 0 1-1 1zm0-7h-2a1 1 0 0 1-1-1v-2a1 1 0 0 1 1-1h2a1 1 0 0 1 1 1v2a1 1 0 0 1-1 1zm5-12h2v2h-2V4zm1 36a2 2 0 1 1-.001 4.001A2 2 0 0 1 24 40z" fill-rule="evenodd"/>
</symbol></svg>